<svg width="171" height="133" viewBox="0 0 171 133" fill="none" xmlns="http://www.w3.org/2000/svg">
<path d="M152 14.25C154.613 14.25 156.75 16.3875 156.75 19V114C156.75 116.612 154.613 118.75 152 118.75H19C16.3875 118.75 14.25 116.612 14.25 114V19C14.25 16.3875 16.3875 14.25 19 14.25H152ZM19 0C8.52031 0 0 8.52031 0 19V114C0 124.48 8.52031 133 19 133H152C162.48 133 171 124.48 171 114V19C171 8.52031 162.48 0 152 0H19ZM61.75 66.5C66.7891 66.5 71.6218 64.4982 75.185 60.935C78.7482 57.3718 80.75 52.5391 80.75 47.5C80.75 42.4609 78.7482 37.6282 75.185 34.065C71.6218 30.5018 66.7891 28.5 61.75 28.5C56.7109 28.5 51.8782 30.5018 48.315 34.065C44.7518 37.6282 42.75 42.4609 42.75 47.5C42.75 52.5391 44.7518 57.3718 48.315 60.935C51.8782 64.4982 56.7109 66.5 61.75 66.5ZM52.25 76C39.1281 76 28.5 86.6281 28.5 99.75C28.5 102.362 30.6375 104.5 33.25 104.5H90.25C92.8625 104.5 95 102.362 95 99.75C95 86.6281 84.3719 76 71.25 76H52.25ZM111.625 33.25C107.677 33.25 104.5 36.4266 104.5 40.375C104.5 44.3234 107.677 47.5 111.625 47.5H135.375C139.323 47.5 142.5 44.3234 142.5 40.375C142.5 36.4266 139.323 33.25 135.375 33.25H111.625ZM111.625 61.75C107.677 61.75 104.5 64.9266 104.5 68.875C104.5 72.8234 107.677 76 111.625 76H135.375C139.323 76 142.5 72.8234 142.5 68.875C142.5 64.9266 139.323 61.75 135.375 61.75H111.625Z" fill="#003D7C"/>
</svg>
