<svg width="148" height="148" viewBox="0 0 148 148" fill="none" xmlns="http://www.w3.org/2000/svg">
<g clip-path="url(#clip0_47_2)">
<path d="M22.7202 1.44527C19.9741 -0.693792 16.0718 -0.433636 13.5858 2.0234L2.02333 13.5859C-0.433703 16.0429 -0.693859 19.9453 1.4163 22.7203L24.5413 52.7828C25.8421 54.4882 27.8944 55.5 30.0335 55.5H45.6718L77.1796 87.0078C72.9304 95.3906 74.289 105.912 81.3132 112.908L113.688 145.283C117.301 148.896 123.169 148.896 126.783 145.283L145.283 126.783C148.896 123.169 148.896 117.302 145.283 113.688L112.908 81.3132C105.912 74.3179 95.3905 72.9304 87.0077 77.1796L55.4999 45.6718V30.0625C55.4999 27.8945 54.4882 25.8711 52.7827 24.5703L22.7202 1.44527ZM5.75223 114.498C2.08114 118.169 -0.000109351 123.169 -0.000109351 128.373C-0.000109351 139.212 8.78739 148 19.6272 148C24.8304 148 29.8311 145.919 33.5022 142.248L67.5538 108.196C65.2991 102.155 64.9522 95.5929 66.5132 89.3781L48.678 71.5429L5.75223 114.498ZM148 41.625C148 38.5898 147.682 35.6414 147.075 32.8086C146.381 29.5711 142.421 28.7328 140.08 31.0742L121.608 49.5453C120.741 50.4125 119.556 50.9039 118.342 50.9039H101.75C99.2061 50.9039 97.1249 48.8226 97.1249 46.2789V29.6578C97.1249 28.4437 97.6163 27.2586 98.4835 26.3914L116.955 7.92027C119.296 5.57886 118.458 1.61871 115.22 0.924958C112.358 0.317926 109.41 -4.22903e-05 106.375 -4.22903e-05C83.3944 -4.22903e-05 64.7499 18.6445 64.7499 41.625V41.8562L89.4069 66.5132C99.8132 63.8828 111.318 66.6578 119.469 74.8093L124.008 79.3476C138.172 72.6992 148 58.3039 148 41.625ZM16.1874 124.875C16.1874 123.035 16.9183 121.27 18.2193 119.969C19.5204 118.668 21.285 117.937 23.1249 117.937C24.9648 117.937 26.7294 118.668 28.0304 119.969C29.3315 121.27 30.0624 123.035 30.0624 124.875C30.0624 126.715 29.3315 128.479 28.0304 129.781C26.7294 131.082 24.9648 131.812 23.1249 131.812C21.285 131.812 19.5204 131.082 18.2193 129.781C16.9183 128.479 16.1874 126.715 16.1874 124.875Z" fill="#003D7C"/>
</g>
<defs>
<clipPath id="clip0_47_2">
<rect width="148" height="148" fill="white"/>
</clipPath>
</defs>
</svg>
