<svg width="150" height="170" viewBox="0 0 150 170" fill="none" xmlns="http://www.w3.org/2000/svg">
<path d="M0 26.5625C0 17.7637 7.19866 10.625 16.0714 10.625H48.2143C57.0871 10.625 64.2857 17.7637 64.2857 26.5625V58.4375C64.2857 67.2363 57.0871 74.375 48.2143 74.375H16.0714C7.19866 74.375 0 67.2363 0 58.4375V26.5625ZM21.4286 31.875V53.125H42.8571V31.875H21.4286ZM0 111.562C0 102.764 7.19866 95.625 16.0714 95.625H48.2143C57.0871 95.625 64.2857 102.764 64.2857 111.562V143.438C64.2857 152.236 57.0871 159.375 48.2143 159.375H16.0714C7.19866 159.375 0 152.236 0 143.438V111.562ZM21.4286 116.875V138.125H42.8571V116.875H21.4286ZM101.786 10.625H133.929C142.801 10.625 150 17.7637 150 26.5625V58.4375C150 67.2363 142.801 74.375 133.929 74.375H101.786C92.9129 74.375 85.7143 67.2363 85.7143 58.4375V26.5625C85.7143 17.7637 92.9129 10.625 101.786 10.625ZM128.571 31.875H107.143V53.125H128.571V31.875ZM85.7143 100.938C85.7143 98.0156 88.125 95.625 91.0714 95.625H112.5C115.446 95.625 117.857 98.0156 117.857 100.938C117.857 103.859 120.268 106.25 123.214 106.25H133.929C136.875 106.25 139.286 103.859 139.286 100.938C139.286 98.0156 141.696 95.625 144.643 95.625C147.589 95.625 150 98.0156 150 100.938V132.812C150 135.734 147.589 138.125 144.643 138.125H123.214C120.268 138.125 117.857 135.734 117.857 132.812C117.857 129.891 115.446 127.5 112.5 127.5C109.554 127.5 107.143 129.891 107.143 132.812V154.062C107.143 156.984 104.732 159.375 101.786 159.375H91.0714C88.125 159.375 85.7143 156.984 85.7143 154.062V100.938ZM123.214 159.375C121.793 159.375 120.431 158.815 119.426 157.819C118.422 156.823 117.857 155.471 117.857 154.062C117.857 152.654 118.422 151.302 119.426 150.306C120.431 149.31 121.793 148.75 123.214 148.75C124.635 148.75 125.998 149.31 127.002 150.306C128.007 151.302 128.571 152.654 128.571 154.062C128.571 155.471 128.007 156.823 127.002 157.819C125.998 158.815 124.635 159.375 123.214 159.375ZM144.643 159.375C143.222 159.375 141.859 158.815 140.855 157.819C139.85 156.823 139.286 155.471 139.286 154.062C139.286 152.654 139.85 151.302 140.855 150.306C141.859 149.31 143.222 148.75 144.643 148.75C146.064 148.75 147.426 149.31 148.431 150.306C149.436 151.302 150 152.654 150 154.062C150 155.471 149.436 156.823 148.431 157.819C147.426 158.815 146.064 159.375 144.643 159.375Z" fill="#003D7C"/>
</svg>
