<svg width="179" height="61" viewBox="0 0 179 61" fill="none" xmlns="http://www.w3.org/2000/svg">
<path d="M26.8037 10.6104C24.8669 10.1123 22.8608 9.86328 20.7856 9.86328C18.6828 9.86328 16.995 10.3752 15.7222 11.3989C14.4217 12.4504 13.7715 13.9307 13.7715 15.8398C13.7715 17.749 14.2557 19.2432 15.2241 20.3223C16.1925 21.3737 18.0879 22.3006 20.9102 23.103L28.5054 25.3027C32.5728 26.4925 35.8101 28.3602 38.2173 30.9058C40.6245 33.4237 41.8281 37.1175 41.8281 41.9873C41.8281 45.8333 40.8735 49.1536 38.9644 51.9482C37.0552 54.7428 34.4543 56.901 31.1616 58.4229C27.8966 59.917 24.2028 60.6641 20.0801 60.6641C16.6768 60.6641 13.1766 60.2352 9.57959 59.3774C5.98258 58.492 2.9943 57.2607 0.614746 55.6836V53.6914C0.614746 53.055 0.697754 52.0866 0.86377 50.7861C1.05745 49.4857 1.32031 48.1299 1.65234 46.7188C2.01204 45.2799 2.42708 44.0625 2.89746 43.0664H10.9907C11.9038 44.8649 12.4434 47.2168 12.6094 50.1221C14.5186 50.9798 16.8289 51.4087 19.5405 51.4087C22.1691 51.4087 24.3273 50.7861 26.0151 49.541C27.7306 48.2959 28.5884 46.5112 28.5884 44.187C28.5884 43.0802 28.5054 42.181 28.3394 41.4893C28.1733 40.7699 27.6476 40.009 26.7622 39.2065C25.8768 38.4041 24.6178 37.7401 22.9854 37.2144L14.228 34.6826C5.31852 32.1647 0.86377 26.4925 0.86377 17.666C0.86377 14.235 1.70768 11.2467 3.39551 8.70117C5.111 6.1556 7.49056 4.17725 10.5342 2.76611C13.5778 1.35498 17.1195 0.649414 21.1592 0.649414C27.2188 0.649414 33.1261 2.01904 38.8813 4.7583V6.70898C38.8813 7.34538 38.7845 8.32764 38.5908 9.65576C38.4248 10.9562 38.1619 12.312 37.8022 13.7231C37.4702 15.1343 37.0552 16.3379 36.5571 17.334H28.5054C27.5369 15.9505 26.9697 13.7093 26.8037 10.6104ZM46.4351 8.41064L47.2651 1.35498H67.187L68.0171 8.41064C67.104 9.48975 65.5545 10.4443 63.3687 11.2744V50.1221C65.5545 51.0075 67.104 51.9482 68.0171 52.9443L67.187 60H47.2651L46.4351 52.9443C47.1821 51.9759 48.7454 51.0352 51.125 50.1221V11.2744C48.7731 10.4443 47.2098 9.48975 46.4351 8.41064ZM98.2319 10.2783C94.3859 10.2783 91.3976 11.7586 89.2671 14.7192C87.1366 17.6522 86.0713 22.771 86.0713 30.0757C86.0713 44.0763 89.9312 51.0767 97.6509 51.0767C100.667 51.0767 103.378 50.5924 105.786 49.624V40.0366C103.157 39.1512 101.372 38.0998 100.432 36.8823L101.303 30.1587H121.184L122.055 36.8823C121.308 37.7954 119.966 38.667 118.029 39.4971V55.2271C115.318 57.2192 112.329 58.6304 109.064 59.4604C105.799 60.2629 101.732 60.6641 96.8623 60.6641C88.7552 60.6641 82.8063 58.3675 79.0156 53.7744C75.2249 49.1536 73.3296 41.6414 73.3296 31.2378C73.3296 20.8341 75.5846 13.1421 80.0947 8.16162C84.6325 3.15348 90.8166 0.649414 98.647 0.649414C106.505 0.649414 112.91 2.44792 117.863 6.04492V7.9541C117.863 8.59049 117.766 9.57275 117.573 10.9009C117.407 12.2013 117.158 13.571 116.826 15.0098C116.494 16.4209 116.079 17.6245 115.581 18.6206H107.736C106.879 16.9604 106.311 14.6086 106.035 11.5649C103.627 10.7072 101.027 10.2783 98.2319 10.2783ZM128.696 49.707L145.007 0.939941H156.669L173.603 49.9561C175.983 50.8138 177.643 51.8099 178.583 52.9443L177.753 60H157.873L157.001 52.9443C157.693 52.0589 159.063 51.215 161.11 50.4126L158.786 43.2739H141.811L139.653 50.1221C141.645 50.9245 143.125 51.8652 144.094 52.9443L143.222 60H123.84L123.01 52.9443C124.061 51.6439 125.957 50.5648 128.696 49.707ZM150.9 14.2627L150.817 12.8101H149.614C149.614 16.241 148.908 20.2669 147.497 24.8877L144.177 35.4297H156.337L153.1 25.0537C151.8 21.0693 151.066 17.4723 150.9 14.2627Z" fill="#003D7C"/>
</svg>
