<svg width="1483" height="147" viewBox="0 0 1483 147" fill="none" xmlns="http://www.w3.org/2000/svg">
<path fill-rule="evenodd" clip-rule="evenodd" d="M0 56.2272L61.7917 78.0933C123.583 99.9595 247.167 143.692 370.75 146.815C494.333 149.939 617.917 112.454 741.5 106.207C865.083 99.9595 988.667 124.949 1112.25 118.702C1235.83 112.454 1359.42 74.9696 1421.21 56.2272L1483 37.4848V0H1421.21C1359.42 0 1235.83 0 1112.25 0C988.667 0 865.083 0 741.5 0C617.917 0 494.333 0 370.75 0C247.167 0 123.583 0 61.7917 0H0V56.2272Z" fill="#003D7C"/>
</svg>
